
<svg id="b8e4dbf3-839f-413c-863b-4f8b860f203c" data-name="Layer 1" xmlns="http://www.w3.org/2000/svg"
    xmlns:xlink="http://www.w3.org/1999/xlink" width="1040" height="1040" >
    <defs>
    <style>
        .clip-mask {
          fill: none;
        }

        .eat2eat-globe {
          fill: #285252;
        }

        .eat2eat-globe-stroke {
          fill: #52a3a1;
        }

        .under-clip-mask {
          clip-path: url(#eat2eat-clip-mask);
        }

        .eat2eat-land {
          fill: #fd7441;
        }

        .eat2eat-land-stroke {
          fill: #ff9670;
        }

        circle, path {
           transform: translate(-50px, -50px);
        }
      </style>
      <clipPath id="eat2eat-clip-mask">
        <circle class="clip-mask" cx="570" cy="570" r="500" />
      </clipPath>
    </defs>
    <g>
      <circle class="eat2eat-globe" cx="570" cy="570" r="500" />
      <path class="eat2eat-globe-stroke"
        d="M570,70c276.14,0,500,223.86,500,500s-223.86,500-500,500S70,846.14,70,570,293.86,70,570,70m0-20a520.13,520.13,0,0,0-202.41,999.13A520.13,520.13,0,0,0,772.41,90.87,516.76,516.76,0,0,0,570,50Z"/>
    </g>
    <g class="under-clip-mask">
      <g>
        <path class="eat2eat-land"
          d="M399,639.28,437.16,649c29.15,7.4,38.5,44.18,16.41,64.59L403.75,759.6a45.24,45.24,0,0,0-4.38,61.78h0a45.24,45.24,0,0,1-17.23,70.11L0,1059V411l168.42,5.62A102.76,102.76,0,0,1,257.68,466l75.74,124.74A107.7,107.7,0,0,0,399,639.28Z"/>
        <path class="eat2eat-land-stroke"
          d="M0,411l168.42,5.62h1.44A102.74,102.74,0,0,1,257.68,466l75.74,124.74A107.7,107.7,0,0,0,399,639.28L437.16,649c29.15,7.4,38.5,44.18,16.41,64.59L403.75,759.6a45.24,45.24,0,0,0-4.38,61.78h0a45.24,45.24,0,0,1-17.23,70.11L0,1059V411m-20-20.68V1089.6l28-12.28L390.1,909.84a65.25,65.25,0,0,0,24.78-101.09,25.28,25.28,0,0,1,2.45-34.46l49.82-46.06a57.83,57.83,0,0,0-25.08-98.66l-38.14-9.67a87.22,87.22,0,0,1-53.41-39.5L274.77,455.66a122.76,122.76,0,0,0-104.91-59.05h-1.22L.67,391-20,390.32Z"/>
      </g>
      <g>
        <path class="eat2eat-land"
          d="M929.33,781.13a77.5,77.5,0,0,0-37.6-28.19L791.18,717.88a99.3,99.3,0,0,1-43-29.44l-36.12-42.5a68.3,68.3,0,0,1-16.26-44.25v-53a38.35,38.35,0,0,1,38.35-38.36h42.95a77.55,77.55,0,0,0,67.12-38.72l37.56-64.93a117,117,0,0,1,59.83-50.85L1140,304.33v785.34Z"/>
        <path class="eat2eat-land-stroke"
          d="M1140,304.33v785.34L929.33,781.13a77.5,77.5,0,0,0-37.6-28.19L791.18,717.88a99.3,99.3,0,0,1-43-29.44l-36.12-42.5a68.3,68.3,0,0,1-16.26-44.25v-53a38.35,38.35,0,0,1,38.35-38.36h42.95a77.55,77.55,0,0,0,67.12-38.72l37.56-64.93a117,117,0,0,1,59.83-50.85L1140,304.33m20-25.86L1135,285,936.62,336.51l-1,.27-1,.39a137.4,137.4,0,0,0-70,59.54L827,461.64a57.73,57.73,0,0,1-49.81,28.73H734.19a58.42,58.42,0,0,0-58.35,58.36v53a88.43,88.43,0,0,0,21,57.21L733,701.39a119.4,119.4,0,0,0,51.62,35.38l100.54,35.05a57.21,57.21,0,0,1,27.8,20.77l210.54,308.35,36.52,53.49v-876Z"/>
      </g>
      <g>
        <path class="eat2eat-land"
          d="M631.88,109.06a60.91,60.91,0,0,0,2.32,61.54l28,44a61,61,0,0,1-2.61,69.27l-71.34,95.28a60.92,60.92,0,0,1-48.77,24.41H460c-20.81,0-32.72-23.73-20.28-40.41h0c12.44-16.68.54-40.41-20.27-40.41H316.84a60.91,60.91,0,0,1-54.35-33.41L131,0H692.33Z"/>
        <path class="eat2eat-land-stroke"
          d="M692.33,0,631.88,109.06a60.91,60.91,0,0,0,2.32,61.54l28,44a61,61,0,0,1-2.61,69.27l-71.34,95.28a60.92,60.92,0,0,1-48.77,24.41H460c-20.81,0-32.72-23.73-20.28-40.41h0c12.44-16.68.54-40.41-20.27-40.41H316.84a60.91,60.91,0,0,1-54.35-33.41L131,0H692.33m34-20H99.94L112.79,8.28,244.28,297.57l.17.38.19.38a80.94,80.94,0,0,0,72.2,44.37H419.4a5.29,5.29,0,0,1,4.24,8.45A45.29,45.29,0,0,0,460,423.52h79.56a81.29,81.29,0,0,0,64.77-32.42l71.35-95.29a80.91,80.91,0,0,0,3.46-92l-28-44a41,41,0,0,1-1.62-41.23L709.83,9.7,726.29-20Z"/>
      </g>
    </g>
  </svg>